<mxfile host="65bd71144e">
    <diagram id="CxsQ25hK5FFDRgqwHUKH" name="Page-1">
        <mxGraphModel dx="2232" dy="680" grid="1" gridSize="10" guides="1" tooltips="1" connect="1" arrows="1" fold="1" page="1" pageScale="1" pageWidth="850" pageHeight="1100" math="0" shadow="0">
            <root>
                <mxCell id="0"/>
                <mxCell id="1" parent="0"/>
                <mxCell id="8" value="S" style="strokeWidth=1;shadow=0;dashed=0;align=center;html=1;shape=mxgraph.mockup.buttons.multiButton;fillColor=#008cff;strokeColor=#666666;mainText=;subText=;fontStyle=1" vertex="1" parent="1">
                    <mxGeometry x="350" width="150" height="50" as="geometry"/>
                </mxCell>
                <mxCell id="9" value="STAFFS PAGE" style="strokeWidth=1;shadow=0;dashed=0;align=center;html=1;shape=mxgraph.mockup.anchor;fontSize=16;fontColor=#ffffff;fontStyle=1;whiteSpace=wrap;" vertex="1" parent="8">
                    <mxGeometry y="8" width="150" height="20" as="geometry"/>
                </mxCell>
                <mxCell id="10" value="tên và hình nhân viên" style="strokeWidth=1;shadow=0;dashed=0;align=center;html=1;shape=mxgraph.mockup.anchor;fontSize=12;fontColor=#ffffff;fontStyle=0;whiteSpace=wrap;" vertex="1" parent="8">
                    <mxGeometry y="30" width="150" height="10" as="geometry"/>
                </mxCell>
                <mxCell id="11" value="&#10;&#10;&lt;a href=&quot;data:page/id,LYUTWzcUxuBQ3LVQwCaI&quot; style=&quot;color: rgb(51, 122, 183); font-family: helvetica; font-size: 20px; font-style: normal; font-weight: 400; letter-spacing: normal; text-align: center; text-indent: 0px; text-transform: none; word-spacing: 0px; background-color: rgb(42, 42, 42);&quot;&gt;Tên NV&lt;/a&gt;&#10;&#10;" style="strokeWidth=1;shadow=0;dashed=0;align=center;html=1;shape=mxgraph.mockup.containers.browserWindow;rSize=0;strokeColor=#666666;strokeColor2=#008cff;strokeColor3=#c4c4c4;mainText=,;recursiveResize=0;" vertex="1" parent="1">
                    <mxGeometry y="60" width="850" height="1040" as="geometry"/>
                </mxCell>
                <mxCell id="12" value="Page 1" style="strokeWidth=1;shadow=0;dashed=0;align=center;html=1;shape=mxgraph.mockup.containers.anchor;fontSize=17;fontColor=#666666;align=left;" vertex="1" parent="11">
                    <mxGeometry x="60" y="12" width="110" height="26" as="geometry"/>
                </mxCell>
                <mxCell id="13" value="https://www.draw.io" style="strokeWidth=1;shadow=0;dashed=0;align=center;html=1;shape=mxgraph.mockup.containers.anchor;rSize=0;fontSize=17;fontColor=#666666;align=left;" vertex="1" parent="11">
                    <mxGeometry x="130" y="60" width="250" height="26" as="geometry"/>
                </mxCell>
                <mxCell id="14" value="" style="rounded=0;whiteSpace=wrap;html=1;" vertex="1" parent="11">
                    <mxGeometry y="110" width="850" height="60" as="geometry"/>
                </mxCell>
                <mxCell id="15" value="&lt;b&gt;&lt;font color=&quot;#ff66ff&quot;&gt;&lt;a href=&quot;data:page/id,CxsQ25hK5FFDRgqwHUKH&quot;&gt;LOGO&lt;/a&gt;&lt;/font&gt;&lt;/b&gt;" style="whiteSpace=wrap;html=1;aspect=fixed;" vertex="1" parent="11">
                    <mxGeometry x="100" y="110" width="60" height="60" as="geometry"/>
                </mxCell>
                <mxCell id="16" value="" style="endArrow=none;html=1;entryX=1;entryY=0;entryDx=0;entryDy=0;exitX=0;exitY=1;exitDx=0;exitDy=0;" edge="1" parent="11" source="15" target="15">
                    <mxGeometry width="50" height="50" relative="1" as="geometry">
                        <mxPoint x="380" y="210" as="sourcePoint"/>
                        <mxPoint x="430" y="160" as="targetPoint"/>
                        <Array as="points"/>
                    </mxGeometry>
                </mxCell>
                <mxCell id="17" value="" style="endArrow=none;html=1;entryX=0;entryY=0;entryDx=0;entryDy=0;exitX=1;exitY=1;exitDx=0;exitDy=0;" edge="1" parent="11" source="15" target="15">
                    <mxGeometry width="50" height="50" relative="1" as="geometry">
                        <mxPoint x="380" y="210" as="sourcePoint"/>
                        <mxPoint x="430" y="160" as="targetPoint"/>
                    </mxGeometry>
                </mxCell>
                <mxCell id="22" value="&lt;b&gt;&lt;font color=&quot;#ff66ff&quot;&gt;&lt;a href=&quot;data:page/id,CxsQ25hK5FFDRgqwHUKH&quot;&gt;logo&lt;/a&gt;&lt;/font&gt;&lt;/b&gt;" style="whiteSpace=wrap;html=1;aspect=fixed;" vertex="1" parent="11">
                    <mxGeometry x="170" y="120" width="40" height="40" as="geometry"/>
                </mxCell>
                <mxCell id="25" value="&lt;font style=&quot;font-size: 20px&quot;&gt;&lt;a href=&quot;data:page/id,CxsQ25hK5FFDRgqwHUKH&quot;&gt;Nhân Viên&lt;/a&gt;&lt;/font&gt;" style="rounded=0;whiteSpace=wrap;html=1;" vertex="1" parent="11">
                    <mxGeometry x="210" y="120" width="110" height="40" as="geometry"/>
                </mxCell>
                <mxCell id="26" value="" style="endArrow=none;html=1;exitX=0;exitY=1;exitDx=0;exitDy=0;entryX=0;entryY=0;entryDx=0;entryDy=0;" edge="1" parent="11" source="22" target="25">
                    <mxGeometry width="50" height="50" relative="1" as="geometry">
                        <mxPoint x="280" y="130" as="sourcePoint"/>
                        <mxPoint x="330" y="80" as="targetPoint"/>
                    </mxGeometry>
                </mxCell>
                <mxCell id="27" value="" style="endArrow=none;html=1;exitX=0;exitY=0;exitDx=0;exitDy=0;entryX=0;entryY=1;entryDx=0;entryDy=0;" edge="1" parent="11" source="22" target="25">
                    <mxGeometry width="50" height="50" relative="1" as="geometry">
                        <mxPoint x="280" y="130" as="sourcePoint"/>
                        <mxPoint x="330" y="80" as="targetPoint"/>
                    </mxGeometry>
                </mxCell>
                <mxCell id="28" value="&lt;b&gt;&lt;font color=&quot;#ff66ff&quot;&gt;&lt;a href=&quot;data:page/id,U2eBz-lND8NUGA0mo6qr&quot;&gt;logo&lt;/a&gt;&lt;/font&gt;&lt;/b&gt;" style="whiteSpace=wrap;html=1;aspect=fixed;" vertex="1" parent="11">
                    <mxGeometry x="320" y="120" width="40" height="40" as="geometry"/>
                </mxCell>
                <mxCell id="29" value="&lt;font style=&quot;font-size: 20px&quot;&gt;&lt;a href=&quot;data:page/id,U2eBz-lND8NUGA0mo6qr&quot;&gt;Phòng Ban&lt;/a&gt;&lt;/font&gt;" style="rounded=0;whiteSpace=wrap;html=1;" vertex="1" parent="11">
                    <mxGeometry x="360" y="120" width="110" height="40" as="geometry"/>
                </mxCell>
                <mxCell id="30" value="" style="endArrow=none;html=1;exitX=0;exitY=1;exitDx=0;exitDy=0;entryX=0;entryY=0;entryDx=0;entryDy=0;" edge="1" parent="11" source="28" target="29">
                    <mxGeometry width="50" height="50" relative="1" as="geometry">
                        <mxPoint x="360" y="50" as="sourcePoint"/>
                        <mxPoint x="410" as="targetPoint"/>
                    </mxGeometry>
                </mxCell>
                <mxCell id="31" value="" style="endArrow=none;html=1;exitX=0;exitY=0;exitDx=0;exitDy=0;entryX=0;entryY=1;entryDx=0;entryDy=0;" edge="1" parent="11" source="28" target="29">
                    <mxGeometry width="50" height="50" relative="1" as="geometry">
                        <mxPoint x="360" y="50" as="sourcePoint"/>
                        <mxPoint x="410" as="targetPoint"/>
                        <Array as="points"/>
                    </mxGeometry>
                </mxCell>
                <mxCell id="32" value="&lt;b&gt;&lt;font color=&quot;#ff66ff&quot;&gt;&lt;a href=&quot;data:page/id,AyWRFbMxIVs07Lmcv03o&quot;&gt;logo&lt;/a&gt;&lt;/font&gt;&lt;/b&gt;" style="whiteSpace=wrap;html=1;aspect=fixed;" vertex="1" parent="11">
                    <mxGeometry x="470" y="120" width="40" height="40" as="geometry"/>
                </mxCell>
                <mxCell id="33" value="&lt;a href=&quot;data:page/id,AyWRFbMxIVs07Lmcv03o&quot;&gt;Bảng Lương&lt;/a&gt;" style="rounded=0;whiteSpace=wrap;html=1;fontSize=20;" vertex="1" parent="11">
                    <mxGeometry x="510" y="120" width="120" height="40" as="geometry"/>
                </mxCell>
                <mxCell id="34" value="" style="endArrow=none;html=1;exitX=0;exitY=1;exitDx=0;exitDy=0;entryX=0;entryY=0;entryDx=0;entryDy=0;" edge="1" parent="11" source="32" target="33">
                    <mxGeometry width="50" height="50" relative="1" as="geometry">
                        <mxPoint x="470" y="50" as="sourcePoint"/>
                        <mxPoint x="520" as="targetPoint"/>
                    </mxGeometry>
                </mxCell>
                <mxCell id="35" value="" style="endArrow=none;html=1;exitX=0;exitY=0;exitDx=0;exitDy=0;entryX=0;entryY=1;entryDx=0;entryDy=0;" edge="1" parent="11" source="32" target="33">
                    <mxGeometry width="50" height="50" relative="1" as="geometry">
                        <mxPoint x="470" y="50" as="sourcePoint"/>
                        <mxPoint x="520" as="targetPoint"/>
                    </mxGeometry>
                </mxCell>
                <mxCell id="36" value="&lt;b style=&quot;font-size: 20px&quot;&gt;Nhân Viên&lt;/b&gt;" style="rounded=0;whiteSpace=wrap;html=1;fontColor=#FF66FF;" vertex="1" parent="11">
                    <mxGeometry x="100" y="180" width="120" height="60" as="geometry"/>
                </mxCell>
                <mxCell id="38" value="" style="line;strokeWidth=2;html=1;fontSize=20;fontColor=#FF66FF;" vertex="1" parent="11">
                    <mxGeometry x="100" y="250" width="650" height="10" as="geometry"/>
                </mxCell>
                <mxCell id="39" value="&lt;a href=&quot;data:page/id,LYUTWzcUxuBQ3LVQwCaI&quot;&gt;data:page/id,LYUTWzcUxuBQ3LVQwCaI&lt;/a&gt;" style="verticalLabelPosition=bottom;shadow=0;dashed=0;align=center;html=1;verticalAlign=top;strokeWidth=1;shape=mxgraph.mockup.containers.userMale;strokeColor=#666666;strokeColor2=#008cff;fontSize=20;fontColor=#FF66FF;" vertex="1" parent="11">
                    <mxGeometry x="100" y="270" width="100" height="100" as="geometry"/>
                </mxCell>
                <mxCell id="45" value="&lt;a href=&quot;data:page/id,LYUTWzcUxuBQ3LVQwCaI&quot;&gt;Tên NV&lt;/a&gt;" style="shape=ext;double=1;rounded=0;whiteSpace=wrap;html=1;fontSize=20;fontColor=#FF66FF;" vertex="1" parent="11">
                    <mxGeometry x="100" y="370" width="100" height="30" as="geometry"/>
                </mxCell>
                <mxCell id="K24b5KjalJRYKOWEMSOo-77" value="" style="edgeStyle=none;html=1;fontSize=20;fontColor=#FF66FF;" edge="1" parent="11" source="50">
                    <mxGeometry relative="1" as="geometry">
                        <mxPoint x="700" y="370" as="targetPoint"/>
                    </mxGeometry>
                </mxCell>
                <mxCell id="77" value="FOOTER" style="rounded=0;whiteSpace=wrap;html=1;fontSize=20;fontColor=#FF66FF;" vertex="1" parent="11">
                    <mxGeometry y="780" width="850" height="260" as="geometry"/>
                </mxCell>
                <mxCell id="K24b5KjalJRYKOWEMSOo-78" value="&lt;a href=&quot;data:page/id,LYUTWzcUxuBQ3LVQwCaI&quot;&gt;data:page/id,LYUTWzcUxuBQ3LVQwCaI&lt;/a&gt;" style="verticalLabelPosition=bottom;shadow=0;dashed=0;align=center;html=1;verticalAlign=top;strokeWidth=1;shape=mxgraph.mockup.containers.userMale;strokeColor=#666666;strokeColor2=#008cff;fontSize=20;fontColor=#FF66FF;" vertex="1" parent="11">
                    <mxGeometry x="210" y="270" width="100" height="100" as="geometry"/>
                </mxCell>
                <mxCell id="K24b5KjalJRYKOWEMSOo-79" value="&lt;a href=&quot;data:page/id,LYUTWzcUxuBQ3LVQwCaI&quot;&gt;Tên NV&lt;/a&gt;" style="shape=ext;double=1;rounded=0;whiteSpace=wrap;html=1;fontSize=20;fontColor=#FF66FF;" vertex="1" parent="11">
                    <mxGeometry x="210" y="370" width="100" height="30" as="geometry"/>
                </mxCell>
                <mxCell id="K24b5KjalJRYKOWEMSOo-80" value="&lt;a href=&quot;data:page/id,LYUTWzcUxuBQ3LVQwCaI&quot;&gt;data:page/id,LYUTWzcUxuBQ3LVQwCaI&lt;/a&gt;" style="verticalLabelPosition=bottom;shadow=0;dashed=0;align=center;html=1;verticalAlign=top;strokeWidth=1;shape=mxgraph.mockup.containers.userMale;strokeColor=#666666;strokeColor2=#008cff;fontSize=20;fontColor=#FF66FF;" vertex="1" parent="11">
                    <mxGeometry x="320" y="270" width="100" height="100" as="geometry"/>
                </mxCell>
                <mxCell id="K24b5KjalJRYKOWEMSOo-81" value="&lt;a href=&quot;data:page/id,LYUTWzcUxuBQ3LVQwCaI&quot;&gt;Tên NV&lt;/a&gt;" style="shape=ext;double=1;rounded=0;whiteSpace=wrap;html=1;fontSize=20;fontColor=#FF66FF;" vertex="1" parent="11">
                    <mxGeometry x="320" y="370" width="100" height="30" as="geometry"/>
                </mxCell>
                <mxCell id="K24b5KjalJRYKOWEMSOo-82" value="&lt;a href=&quot;data:page/id,LYUTWzcUxuBQ3LVQwCaI&quot;&gt;data:page/id,LYUTWzcUxuBQ3LVQwCaI&lt;/a&gt;" style="verticalLabelPosition=bottom;shadow=0;dashed=0;align=center;html=1;verticalAlign=top;strokeWidth=1;shape=mxgraph.mockup.containers.userMale;strokeColor=#666666;strokeColor2=#008cff;fontSize=20;fontColor=#FF66FF;" vertex="1" parent="11">
                    <mxGeometry x="430" y="270" width="100" height="100" as="geometry"/>
                </mxCell>
                <mxCell id="K24b5KjalJRYKOWEMSOo-83" value="&lt;a href=&quot;data:page/id,LYUTWzcUxuBQ3LVQwCaI&quot;&gt;Tên NV&lt;/a&gt;" style="shape=ext;double=1;rounded=0;whiteSpace=wrap;html=1;fontSize=20;fontColor=#FF66FF;" vertex="1" parent="11">
                    <mxGeometry x="430" y="370" width="100" height="30" as="geometry"/>
                </mxCell>
                <mxCell id="K24b5KjalJRYKOWEMSOo-84" value="&lt;a href=&quot;data:page/id,LYUTWzcUxuBQ3LVQwCaI&quot;&gt;data:page/id,LYUTWzcUxuBQ3LVQwCaI&lt;/a&gt;" style="verticalLabelPosition=bottom;shadow=0;dashed=0;align=center;html=1;verticalAlign=top;strokeWidth=1;shape=mxgraph.mockup.containers.userMale;strokeColor=#666666;strokeColor2=#008cff;fontSize=20;fontColor=#FF66FF;" vertex="1" parent="11">
                    <mxGeometry x="540" y="270" width="100" height="100" as="geometry"/>
                </mxCell>
                <mxCell id="K24b5KjalJRYKOWEMSOo-85" value="&lt;a href=&quot;data:page/id,LYUTWzcUxuBQ3LVQwCaI&quot;&gt;Tên NV&lt;/a&gt;" style="shape=ext;double=1;rounded=0;whiteSpace=wrap;html=1;fontSize=20;fontColor=#FF66FF;" vertex="1" parent="11">
                    <mxGeometry x="540" y="370" width="100" height="30" as="geometry"/>
                </mxCell>
                <mxCell id="K24b5KjalJRYKOWEMSOo-86" value="&lt;a href=&quot;data:page/id,LYUTWzcUxuBQ3LVQwCaI&quot;&gt;data:page/id,LYUTWzcUxuBQ3LVQwCaI&lt;/a&gt;" style="verticalLabelPosition=bottom;shadow=0;dashed=0;align=center;html=1;verticalAlign=top;strokeWidth=1;shape=mxgraph.mockup.containers.userMale;strokeColor=#666666;strokeColor2=#008cff;fontSize=20;fontColor=#FF66FF;" vertex="1" parent="11">
                    <mxGeometry x="650" y="270" width="100" height="100" as="geometry"/>
                </mxCell>
                <mxCell id="K24b5KjalJRYKOWEMSOo-87" value="&lt;a href=&quot;data:page/id,LYUTWzcUxuBQ3LVQwCaI&quot;&gt;Tên NV&lt;/a&gt;" style="shape=ext;double=1;rounded=0;whiteSpace=wrap;html=1;fontSize=20;fontColor=#FF66FF;" vertex="1" parent="11">
                    <mxGeometry x="650" y="370" width="100" height="30" as="geometry"/>
                </mxCell>
                <mxCell id="K24b5KjalJRYKOWEMSOo-88" value="&lt;a href=&quot;data:page/id,LYUTWzcUxuBQ3LVQwCaI&quot;&gt;data:page/id,LYUTWzcUxuBQ3LVQwCaI&lt;/a&gt;" style="verticalLabelPosition=bottom;shadow=0;dashed=0;align=center;html=1;verticalAlign=top;strokeWidth=1;shape=mxgraph.mockup.containers.userMale;strokeColor=#666666;strokeColor2=#008cff;fontSize=20;fontColor=#FF66FF;" vertex="1" parent="11">
                    <mxGeometry x="100" y="425" width="100" height="100" as="geometry"/>
                </mxCell>
                <mxCell id="K24b5KjalJRYKOWEMSOo-89" value="&lt;a href=&quot;data:page/id,LYUTWzcUxuBQ3LVQwCaI&quot;&gt;Tên NV&lt;/a&gt;" style="shape=ext;double=1;rounded=0;whiteSpace=wrap;html=1;fontSize=20;fontColor=#FF66FF;" vertex="1" parent="11">
                    <mxGeometry x="100" y="525" width="100" height="30" as="geometry"/>
                </mxCell>
                <mxCell id="K24b5KjalJRYKOWEMSOo-90" value="&lt;a href=&quot;data:page/id,LYUTWzcUxuBQ3LVQwCaI&quot;&gt;data:page/id,LYUTWzcUxuBQ3LVQwCaI&lt;/a&gt;" style="verticalLabelPosition=bottom;shadow=0;dashed=0;align=center;html=1;verticalAlign=top;strokeWidth=1;shape=mxgraph.mockup.containers.userMale;strokeColor=#666666;strokeColor2=#008cff;fontSize=20;fontColor=#FF66FF;" vertex="1" parent="11">
                    <mxGeometry x="210" y="425" width="100" height="100" as="geometry"/>
                </mxCell>
                <mxCell id="K24b5KjalJRYKOWEMSOo-91" value="&lt;a href=&quot;data:page/id,LYUTWzcUxuBQ3LVQwCaI&quot;&gt;Tên NV&lt;/a&gt;" style="shape=ext;double=1;rounded=0;whiteSpace=wrap;html=1;fontSize=20;fontColor=#FF66FF;" vertex="1" parent="11">
                    <mxGeometry x="320" y="525" width="100" height="30" as="geometry"/>
                </mxCell>
                <mxCell id="K24b5KjalJRYKOWEMSOo-92" value="&lt;a href=&quot;data:page/id,LYUTWzcUxuBQ3LVQwCaI&quot;&gt;Tên NV&lt;/a&gt;" style="shape=ext;double=1;rounded=0;whiteSpace=wrap;html=1;fontSize=20;fontColor=#FF66FF;" vertex="1" parent="11">
                    <mxGeometry x="430" y="525" width="100" height="30" as="geometry"/>
                </mxCell>
                <mxCell id="K24b5KjalJRYKOWEMSOo-93" value="&lt;a href=&quot;data:page/id,LYUTWzcUxuBQ3LVQwCaI&quot;&gt;Tên NV&lt;/a&gt;" style="shape=ext;double=1;rounded=0;whiteSpace=wrap;html=1;fontSize=20;fontColor=#FF66FF;" vertex="1" parent="11">
                    <mxGeometry x="540" y="525" width="100" height="30" as="geometry"/>
                </mxCell>
                <mxCell id="K24b5KjalJRYKOWEMSOo-94" value="&lt;a href=&quot;data:page/id,LYUTWzcUxuBQ3LVQwCaI&quot;&gt;data:page/id,LYUTWzcUxuBQ3LVQwCaI&lt;/a&gt;" style="verticalLabelPosition=bottom;shadow=0;dashed=0;align=center;html=1;verticalAlign=top;strokeWidth=1;shape=mxgraph.mockup.containers.userMale;strokeColor=#666666;strokeColor2=#008cff;fontSize=20;fontColor=#FF66FF;" vertex="1" parent="11">
                    <mxGeometry x="650" y="425" width="100" height="100" as="geometry"/>
                </mxCell>
                <mxCell id="K24b5KjalJRYKOWEMSOo-95" value="&lt;a href=&quot;data:page/id,LYUTWzcUxuBQ3LVQwCaI&quot;&gt;Tên NV&lt;/a&gt;" style="shape=ext;double=1;rounded=0;whiteSpace=wrap;html=1;fontSize=20;fontColor=#FF66FF;" vertex="1" parent="11">
                    <mxGeometry x="650" y="525" width="100" height="30" as="geometry"/>
                </mxCell>
                <mxCell id="K24b5KjalJRYKOWEMSOo-96" value="&lt;a href=&quot;data:page/id,LYUTWzcUxuBQ3LVQwCaI&quot;&gt;data:page/id,LYUTWzcUxuBQ3LVQwCaI&lt;/a&gt;" style="verticalLabelPosition=bottom;shadow=0;dashed=0;align=center;html=1;verticalAlign=top;strokeWidth=1;shape=mxgraph.mockup.containers.userMale;strokeColor=#666666;strokeColor2=#008cff;fontSize=20;fontColor=#FF66FF;" vertex="1" parent="11">
                    <mxGeometry x="100" y="580" width="100" height="100" as="geometry"/>
                </mxCell>
                <mxCell id="K24b5KjalJRYKOWEMSOo-97" value="&lt;a href=&quot;data:page/id,LYUTWzcUxuBQ3LVQwCaI&quot;&gt;Tên NV&lt;/a&gt;" style="shape=ext;double=1;rounded=0;whiteSpace=wrap;html=1;fontSize=20;fontColor=#FF66FF;" vertex="1" parent="11">
                    <mxGeometry x="100" y="680" width="100" height="30" as="geometry"/>
                </mxCell>
                <mxCell id="K24b5KjalJRYKOWEMSOo-98" value="&lt;a href=&quot;data:page/id,LYUTWzcUxuBQ3LVQwCaI&quot;&gt;data:page/id,LYUTWzcUxuBQ3LVQwCaI&lt;/a&gt;" style="verticalLabelPosition=bottom;shadow=0;dashed=0;align=center;html=1;verticalAlign=top;strokeWidth=1;shape=mxgraph.mockup.containers.userMale;strokeColor=#666666;strokeColor2=#008cff;fontSize=20;fontColor=#FF66FF;" vertex="1" parent="11">
                    <mxGeometry x="210" y="580" width="100" height="100" as="geometry"/>
                </mxCell>
                <mxCell id="K24b5KjalJRYKOWEMSOo-99" value="&lt;a href=&quot;data:page/id,LYUTWzcUxuBQ3LVQwCaI&quot;&gt;Tên NV&lt;/a&gt;" style="shape=ext;double=1;rounded=0;whiteSpace=wrap;html=1;fontSize=20;fontColor=#FF66FF;" vertex="1" parent="11">
                    <mxGeometry x="320" y="680" width="100" height="30" as="geometry"/>
                </mxCell>
                <mxCell id="K24b5KjalJRYKOWEMSOo-100" value="&lt;a href=&quot;data:page/id,LYUTWzcUxuBQ3LVQwCaI&quot;&gt;Tên NV&lt;/a&gt;" style="shape=ext;double=1;rounded=0;whiteSpace=wrap;html=1;fontSize=20;fontColor=#FF66FF;" vertex="1" parent="11">
                    <mxGeometry x="430" y="680" width="100" height="30" as="geometry"/>
                </mxCell>
                <mxCell id="K24b5KjalJRYKOWEMSOo-101" value="&lt;a href=&quot;data:page/id,LYUTWzcUxuBQ3LVQwCaI&quot;&gt;Tên NV&lt;/a&gt;" style="shape=ext;double=1;rounded=0;whiteSpace=wrap;html=1;fontSize=20;fontColor=#FF66FF;" vertex="1" parent="11">
                    <mxGeometry x="540" y="680" width="100" height="30" as="geometry"/>
                </mxCell>
                <mxCell id="K24b5KjalJRYKOWEMSOo-102" value="&lt;a href=&quot;data:page/id,LYUTWzcUxuBQ3LVQwCaI&quot;&gt;data:page/id,LYUTWzcUxuBQ3LVQwCaI&lt;/a&gt;" style="verticalLabelPosition=bottom;shadow=0;dashed=0;align=center;html=1;verticalAlign=top;strokeWidth=1;shape=mxgraph.mockup.containers.userMale;strokeColor=#666666;strokeColor2=#008cff;fontSize=20;fontColor=#FF66FF;" vertex="1" parent="11">
                    <mxGeometry x="650" y="580" width="100" height="100" as="geometry"/>
                </mxCell>
                <mxCell id="K24b5KjalJRYKOWEMSOo-103" value="&lt;a href=&quot;data:page/id,LYUTWzcUxuBQ3LVQwCaI&quot;&gt;Tên NV&lt;/a&gt;" style="shape=ext;double=1;rounded=0;whiteSpace=wrap;html=1;fontSize=20;fontColor=#FF66FF;" vertex="1" parent="11">
                    <mxGeometry x="650" y="680" width="100" height="30" as="geometry"/>
                </mxCell>
                <mxCell id="K24b5KjalJRYKOWEMSOo-104" value="&lt;a href=&quot;data:page/id,LYUTWzcUxuBQ3LVQwCaI&quot;&gt;data:page/id,LYUTWzcUxuBQ3LVQwCaI&lt;/a&gt;" style="verticalLabelPosition=bottom;shadow=0;dashed=0;align=center;html=1;verticalAlign=top;strokeWidth=1;shape=mxgraph.mockup.containers.userMale;strokeColor=#666666;strokeColor2=#008cff;fontSize=20;fontColor=#FF66FF;" vertex="1" parent="11">
                    <mxGeometry x="320" y="425" width="100" height="100" as="geometry"/>
                </mxCell>
                <mxCell id="K24b5KjalJRYKOWEMSOo-105" value="&lt;a href=&quot;data:page/id,LYUTWzcUxuBQ3LVQwCaI&quot;&gt;data:page/id,LYUTWzcUxuBQ3LVQwCaI&lt;/a&gt;" style="verticalLabelPosition=bottom;shadow=0;dashed=0;align=center;html=1;verticalAlign=top;strokeWidth=1;shape=mxgraph.mockup.containers.userMale;strokeColor=#666666;strokeColor2=#008cff;fontSize=20;fontColor=#FF66FF;" vertex="1" parent="11">
                    <mxGeometry x="430" y="425" width="100" height="100" as="geometry"/>
                </mxCell>
                <mxCell id="K24b5KjalJRYKOWEMSOo-106" value="&lt;a href=&quot;data:page/id,LYUTWzcUxuBQ3LVQwCaI&quot;&gt;data:page/id,LYUTWzcUxuBQ3LVQwCaI&lt;/a&gt;" style="verticalLabelPosition=bottom;shadow=0;dashed=0;align=center;html=1;verticalAlign=top;strokeWidth=1;shape=mxgraph.mockup.containers.userMale;strokeColor=#666666;strokeColor2=#008cff;fontSize=20;fontColor=#FF66FF;" vertex="1" parent="11">
                    <mxGeometry x="540" y="425" width="100" height="100" as="geometry"/>
                </mxCell>
                <mxCell id="K24b5KjalJRYKOWEMSOo-107" value="&lt;a href=&quot;data:page/id,LYUTWzcUxuBQ3LVQwCaI&quot;&gt;data:page/id,LYUTWzcUxuBQ3LVQwCaI&lt;/a&gt;" style="verticalLabelPosition=bottom;shadow=0;dashed=0;align=center;html=1;verticalAlign=top;strokeWidth=1;shape=mxgraph.mockup.containers.userMale;strokeColor=#666666;strokeColor2=#008cff;fontSize=20;fontColor=#FF66FF;" vertex="1" parent="11">
                    <mxGeometry x="320" y="580" width="100" height="100" as="geometry"/>
                </mxCell>
                <mxCell id="K24b5KjalJRYKOWEMSOo-108" value="&lt;a href=&quot;data:page/id,LYUTWzcUxuBQ3LVQwCaI&quot;&gt;data:page/id,LYUTWzcUxuBQ3LVQwCaI&lt;/a&gt;" style="verticalLabelPosition=bottom;shadow=0;dashed=0;align=center;html=1;verticalAlign=top;strokeWidth=1;shape=mxgraph.mockup.containers.userMale;strokeColor=#666666;strokeColor2=#008cff;fontSize=20;fontColor=#FF66FF;" vertex="1" parent="11">
                    <mxGeometry x="430" y="580" width="100" height="100" as="geometry"/>
                </mxCell>
                <mxCell id="K24b5KjalJRYKOWEMSOo-109" value="&lt;a href=&quot;data:page/id,LYUTWzcUxuBQ3LVQwCaI&quot;&gt;data:page/id,LYUTWzcUxuBQ3LVQwCaI&lt;/a&gt;" style="verticalLabelPosition=bottom;shadow=0;dashed=0;align=center;html=1;verticalAlign=top;strokeWidth=1;shape=mxgraph.mockup.containers.userMale;strokeColor=#666666;strokeColor2=#008cff;fontSize=20;fontColor=#FF66FF;" vertex="1" parent="11">
                    <mxGeometry x="540" y="580" width="100" height="100" as="geometry"/>
                </mxCell>
                <mxCell id="tv-uXHVPzRvqmNdFo-XO-78" value="&lt;a href=&quot;data:page/id,LYUTWzcUxuBQ3LVQwCaI&quot;&gt;Tên NV&lt;/a&gt;" style="shape=ext;double=1;rounded=0;whiteSpace=wrap;html=1;fontSize=20;fontColor=#FF66FF;" vertex="1" parent="11">
                    <mxGeometry x="210" y="525" width="100" height="30" as="geometry"/>
                </mxCell>
                <mxCell id="kGLxnbyX_3PlyhP69G0r-77" value="&lt;a href=&quot;data:page/id,LYUTWzcUxuBQ3LVQwCaI&quot;&gt;Tên NV&lt;/a&gt;" style="shape=ext;double=1;rounded=0;whiteSpace=wrap;html=1;fontSize=20;fontColor=#FF66FF;" vertex="1" parent="11">
                    <mxGeometry x="210" y="680" width="100" height="30" as="geometry"/>
                </mxCell>
            </root>
        </mxGraphModel>
    </diagram>
    <diagram id="U2eBz-lND8NUGA0mo6qr" name="Page-2">
        <mxGraphModel dx="1382" dy="680" grid="1" gridSize="10" guides="1" tooltips="1" connect="1" arrows="1" fold="1" page="1" pageScale="1" pageWidth="850" pageHeight="1100" math="0" shadow="0">
            <root>
                <mxCell id="tMfobam2H_hCaidjnrKc-0"/>
                <mxCell id="tMfobam2H_hCaidjnrKc-1" parent="tMfobam2H_hCaidjnrKc-0"/>
                <mxCell id="l-t9LCDbLbuqFQUgRugY-0" value="" style="strokeWidth=1;shadow=0;dashed=0;align=center;html=1;shape=mxgraph.mockup.buttons.multiButton;fillColor=#008cff;strokeColor=#666666;mainText=;subText=;fontStyle=1" vertex="1" parent="tMfobam2H_hCaidjnrKc-1">
                    <mxGeometry x="330" width="190" height="50" as="geometry"/>
                </mxCell>
                <mxCell id="l-t9LCDbLbuqFQUgRugY-1" value="DEPARTMENTS PAGE" style="strokeWidth=1;shadow=0;dashed=0;align=center;html=1;shape=mxgraph.mockup.anchor;fontSize=16;fontColor=#ffffff;fontStyle=1;whiteSpace=wrap;" vertex="1" parent="l-t9LCDbLbuqFQUgRugY-0">
                    <mxGeometry y="8" width="190" height="20" as="geometry"/>
                </mxCell>
                <mxCell id="l-t9LCDbLbuqFQUgRugY-2" value="" style="strokeWidth=1;shadow=0;dashed=0;align=center;html=1;shape=mxgraph.mockup.anchor;fontSize=12;fontColor=#ffffff;fontStyle=0;whiteSpace=wrap;" vertex="1" parent="l-t9LCDbLbuqFQUgRugY-0">
                    <mxGeometry y="30" width="158.33333333333334" height="10" as="geometry"/>
                </mxCell>
                <mxCell id="l-t9LCDbLbuqFQUgRugY-3" value="" style="strokeWidth=1;shadow=0;dashed=0;align=center;html=1;shape=mxgraph.mockup.containers.browserWindow;rSize=0;strokeColor=#666666;strokeColor2=#008cff;strokeColor3=#c4c4c4;mainText=,;recursiveResize=0;" vertex="1" parent="tMfobam2H_hCaidjnrKc-1">
                    <mxGeometry y="60" width="850" height="690" as="geometry"/>
                </mxCell>
                <mxCell id="l-t9LCDbLbuqFQUgRugY-4" value="Page 2" style="strokeWidth=1;shadow=0;dashed=0;align=center;html=1;shape=mxgraph.mockup.containers.anchor;fontSize=17;fontColor=#666666;align=left;" vertex="1" parent="l-t9LCDbLbuqFQUgRugY-3">
                    <mxGeometry x="60" y="12" width="110" height="26" as="geometry"/>
                </mxCell>
                <mxCell id="l-t9LCDbLbuqFQUgRugY-5" value="https://www.draw.io" style="strokeWidth=1;shadow=0;dashed=0;align=center;html=1;shape=mxgraph.mockup.containers.anchor;rSize=0;fontSize=17;fontColor=#666666;align=left;" vertex="1" parent="l-t9LCDbLbuqFQUgRugY-3">
                    <mxGeometry x="130" y="60" width="250" height="26" as="geometry"/>
                </mxCell>
                <mxCell id="l-t9LCDbLbuqFQUgRugY-6" value="" style="rounded=0;whiteSpace=wrap;html=1;" vertex="1" parent="l-t9LCDbLbuqFQUgRugY-3">
                    <mxGeometry y="110" width="850" height="60" as="geometry"/>
                </mxCell>
                <mxCell id="l-t9LCDbLbuqFQUgRugY-7" value="&lt;b&gt;&lt;font color=&quot;#ff66ff&quot;&gt;&lt;a href=&quot;data:page/id,CxsQ25hK5FFDRgqwHUKH&quot;&gt;LOGO&lt;/a&gt;&lt;/font&gt;&lt;/b&gt;" style="whiteSpace=wrap;html=1;aspect=fixed;" vertex="1" parent="l-t9LCDbLbuqFQUgRugY-3">
                    <mxGeometry x="100" y="110" width="60" height="60" as="geometry"/>
                </mxCell>
                <mxCell id="l-t9LCDbLbuqFQUgRugY-8" value="" style="endArrow=none;html=1;entryX=1;entryY=0;entryDx=0;entryDy=0;exitX=0;exitY=1;exitDx=0;exitDy=0;" edge="1" parent="l-t9LCDbLbuqFQUgRugY-3" source="l-t9LCDbLbuqFQUgRugY-7" target="l-t9LCDbLbuqFQUgRugY-7">
                    <mxGeometry width="50" height="50" relative="1" as="geometry">
                        <mxPoint x="380" y="210" as="sourcePoint"/>
                        <mxPoint x="430" y="160" as="targetPoint"/>
                        <Array as="points"/>
                    </mxGeometry>
                </mxCell>
                <mxCell id="l-t9LCDbLbuqFQUgRugY-9" value="" style="endArrow=none;html=1;entryX=0;entryY=0;entryDx=0;entryDy=0;exitX=1;exitY=1;exitDx=0;exitDy=0;" edge="1" parent="l-t9LCDbLbuqFQUgRugY-3" source="l-t9LCDbLbuqFQUgRugY-7" target="l-t9LCDbLbuqFQUgRugY-7">
                    <mxGeometry width="50" height="50" relative="1" as="geometry">
                        <mxPoint x="380" y="210" as="sourcePoint"/>
                        <mxPoint x="430" y="160" as="targetPoint"/>
                    </mxGeometry>
                </mxCell>
                <mxCell id="l-t9LCDbLbuqFQUgRugY-10" value="&lt;b&gt;&lt;font color=&quot;#ff66ff&quot;&gt;&lt;a href=&quot;data:page/id,CxsQ25hK5FFDRgqwHUKH&quot;&gt;logo&lt;/a&gt;&lt;/font&gt;&lt;/b&gt;" style="whiteSpace=wrap;html=1;aspect=fixed;" vertex="1" parent="l-t9LCDbLbuqFQUgRugY-3">
                    <mxGeometry x="170" y="120" width="40" height="40" as="geometry"/>
                </mxCell>
                <mxCell id="l-t9LCDbLbuqFQUgRugY-11" value="&lt;font style=&quot;font-size: 20px&quot;&gt;&lt;a href=&quot;data:page/id,CxsQ25hK5FFDRgqwHUKH&quot;&gt;Nhân Viên&lt;/a&gt;&lt;/font&gt;" style="rounded=0;whiteSpace=wrap;html=1;" vertex="1" parent="l-t9LCDbLbuqFQUgRugY-3">
                    <mxGeometry x="210" y="120" width="110" height="40" as="geometry"/>
                </mxCell>
                <mxCell id="l-t9LCDbLbuqFQUgRugY-12" value="" style="endArrow=none;html=1;exitX=0;exitY=1;exitDx=0;exitDy=0;entryX=0;entryY=0;entryDx=0;entryDy=0;" edge="1" parent="l-t9LCDbLbuqFQUgRugY-3" source="l-t9LCDbLbuqFQUgRugY-10" target="l-t9LCDbLbuqFQUgRugY-11">
                    <mxGeometry width="50" height="50" relative="1" as="geometry">
                        <mxPoint x="280" y="130" as="sourcePoint"/>
                        <mxPoint x="330" y="80" as="targetPoint"/>
                    </mxGeometry>
                </mxCell>
                <mxCell id="l-t9LCDbLbuqFQUgRugY-13" value="" style="endArrow=none;html=1;exitX=0;exitY=0;exitDx=0;exitDy=0;entryX=0;entryY=1;entryDx=0;entryDy=0;" edge="1" parent="l-t9LCDbLbuqFQUgRugY-3" source="l-t9LCDbLbuqFQUgRugY-10" target="l-t9LCDbLbuqFQUgRugY-11">
                    <mxGeometry width="50" height="50" relative="1" as="geometry">
                        <mxPoint x="280" y="130" as="sourcePoint"/>
                        <mxPoint x="330" y="80" as="targetPoint"/>
                    </mxGeometry>
                </mxCell>
                <mxCell id="l-t9LCDbLbuqFQUgRugY-14" value="&lt;b&gt;&lt;font color=&quot;#ff66ff&quot;&gt;&lt;a href=&quot;data:page/id,U2eBz-lND8NUGA0mo6qr&quot;&gt;logo&lt;/a&gt;&lt;/font&gt;&lt;/b&gt;" style="whiteSpace=wrap;html=1;aspect=fixed;" vertex="1" parent="l-t9LCDbLbuqFQUgRugY-3">
                    <mxGeometry x="320" y="120" width="40" height="40" as="geometry"/>
                </mxCell>
                <mxCell id="l-t9LCDbLbuqFQUgRugY-15" value="&lt;font style=&quot;font-size: 20px&quot;&gt;&lt;a href=&quot;data:page/id,U2eBz-lND8NUGA0mo6qr&quot;&gt;Phòng Ban&lt;/a&gt;&lt;/font&gt;" style="rounded=0;whiteSpace=wrap;html=1;" vertex="1" parent="l-t9LCDbLbuqFQUgRugY-3">
                    <mxGeometry x="360" y="120" width="110" height="40" as="geometry"/>
                </mxCell>
                <mxCell id="l-t9LCDbLbuqFQUgRugY-16" value="" style="endArrow=none;html=1;exitX=0;exitY=1;exitDx=0;exitDy=0;entryX=0;entryY=0;entryDx=0;entryDy=0;" edge="1" parent="l-t9LCDbLbuqFQUgRugY-3" source="l-t9LCDbLbuqFQUgRugY-14" target="l-t9LCDbLbuqFQUgRugY-15">
                    <mxGeometry width="50" height="50" relative="1" as="geometry">
                        <mxPoint x="360" y="50" as="sourcePoint"/>
                        <mxPoint x="410" as="targetPoint"/>
                    </mxGeometry>
                </mxCell>
                <mxCell id="l-t9LCDbLbuqFQUgRugY-17" value="" style="endArrow=none;html=1;exitX=0;exitY=0;exitDx=0;exitDy=0;entryX=0;entryY=1;entryDx=0;entryDy=0;" edge="1" parent="l-t9LCDbLbuqFQUgRugY-3" source="l-t9LCDbLbuqFQUgRugY-14" target="l-t9LCDbLbuqFQUgRugY-15">
                    <mxGeometry width="50" height="50" relative="1" as="geometry">
                        <mxPoint x="360" y="50" as="sourcePoint"/>
                        <mxPoint x="410" as="targetPoint"/>
                        <Array as="points"/>
                    </mxGeometry>
                </mxCell>
                <mxCell id="l-t9LCDbLbuqFQUgRugY-18" value="&lt;b&gt;&lt;font color=&quot;#ff66ff&quot;&gt;&lt;a href=&quot;data:page/id,AyWRFbMxIVs07Lmcv03o&quot;&gt;logo&lt;/a&gt;&lt;/font&gt;&lt;/b&gt;" style="whiteSpace=wrap;html=1;aspect=fixed;" vertex="1" parent="l-t9LCDbLbuqFQUgRugY-3">
                    <mxGeometry x="470" y="120" width="40" height="40" as="geometry"/>
                </mxCell>
                <mxCell id="l-t9LCDbLbuqFQUgRugY-19" value="&lt;a href=&quot;data:page/id,AyWRFbMxIVs07Lmcv03o&quot;&gt;Bảng Lương&lt;/a&gt;" style="rounded=0;whiteSpace=wrap;html=1;fontSize=20;" vertex="1" parent="l-t9LCDbLbuqFQUgRugY-3">
                    <mxGeometry x="510" y="120" width="120" height="40" as="geometry"/>
                </mxCell>
                <mxCell id="l-t9LCDbLbuqFQUgRugY-20" value="" style="endArrow=none;html=1;exitX=0;exitY=1;exitDx=0;exitDy=0;entryX=0;entryY=0;entryDx=0;entryDy=0;" edge="1" parent="l-t9LCDbLbuqFQUgRugY-3" source="l-t9LCDbLbuqFQUgRugY-18" target="l-t9LCDbLbuqFQUgRugY-19">
                    <mxGeometry width="50" height="50" relative="1" as="geometry">
                        <mxPoint x="470" y="50" as="sourcePoint"/>
                        <mxPoint x="520" as="targetPoint"/>
                    </mxGeometry>
                </mxCell>
                <mxCell id="l-t9LCDbLbuqFQUgRugY-21" value="" style="endArrow=none;html=1;exitX=0;exitY=0;exitDx=0;exitDy=0;entryX=0;entryY=1;entryDx=0;entryDy=0;" edge="1" parent="l-t9LCDbLbuqFQUgRugY-3" source="l-t9LCDbLbuqFQUgRugY-18" target="l-t9LCDbLbuqFQUgRugY-19">
                    <mxGeometry width="50" height="50" relative="1" as="geometry">
                        <mxPoint x="470" y="50" as="sourcePoint"/>
                        <mxPoint x="520" as="targetPoint"/>
                    </mxGeometry>
                </mxCell>
                <mxCell id="l-t9LCDbLbuqFQUgRugY-60" value="FOOTER" style="rounded=0;whiteSpace=wrap;html=1;fontSize=20;fontColor=#FF66FF;" vertex="1" parent="l-t9LCDbLbuqFQUgRugY-3">
                    <mxGeometry y="430" width="850" height="260" as="geometry"/>
                </mxCell>
                <mxCell id="l-t9LCDbLbuqFQUgRugY-106" value="Tên Phòng Ban" style="shape=ext;double=1;rounded=0;whiteSpace=wrap;html=1;fontSize=20;fontColor=#FF66FF;labelPosition=center;verticalLabelPosition=middle;align=center;verticalAlign=middle;" vertex="1" parent="l-t9LCDbLbuqFQUgRugY-3">
                    <mxGeometry x="100" y="180" width="200" height="40" as="geometry"/>
                </mxCell>
                <mxCell id="l-t9LCDbLbuqFQUgRugY-108" value="số lượng nhân viên" style="rounded=0;whiteSpace=wrap;html=1;fontSize=20;fontColor=#FF66FF;" vertex="1" parent="l-t9LCDbLbuqFQUgRugY-3">
                    <mxGeometry x="100" y="220" width="200" height="60" as="geometry"/>
                </mxCell>
                <mxCell id="l-t9LCDbLbuqFQUgRugY-109" value="Tên Phòng Ban" style="shape=ext;double=1;rounded=0;whiteSpace=wrap;html=1;fontSize=20;fontColor=#FF66FF;labelPosition=center;verticalLabelPosition=middle;align=center;verticalAlign=middle;" vertex="1" parent="l-t9LCDbLbuqFQUgRugY-3">
                    <mxGeometry x="340" y="180" width="190" height="40" as="geometry"/>
                </mxCell>
                <mxCell id="l-t9LCDbLbuqFQUgRugY-110" value="số lượng nhân viên" style="rounded=0;whiteSpace=wrap;html=1;fontSize=20;fontColor=#FF66FF;" vertex="1" parent="l-t9LCDbLbuqFQUgRugY-3">
                    <mxGeometry x="340" y="220" width="190" height="60" as="geometry"/>
                </mxCell>
                <mxCell id="l-t9LCDbLbuqFQUgRugY-111" value="Tên Phòng Ban" style="shape=ext;double=1;rounded=0;whiteSpace=wrap;html=1;fontSize=20;fontColor=#FF66FF;labelPosition=center;verticalLabelPosition=middle;align=center;verticalAlign=middle;" vertex="1" parent="l-t9LCDbLbuqFQUgRugY-3">
                    <mxGeometry x="570" y="180" width="180" height="40" as="geometry"/>
                </mxCell>
                <mxCell id="l-t9LCDbLbuqFQUgRugY-112" value="số lượng nhân viên" style="rounded=0;whiteSpace=wrap;html=1;fontSize=20;fontColor=#FF66FF;" vertex="1" parent="l-t9LCDbLbuqFQUgRugY-3">
                    <mxGeometry x="570" y="220" width="180" height="60" as="geometry"/>
                </mxCell>
                <mxCell id="l-t9LCDbLbuqFQUgRugY-113" value="Tên Phòng Ban" style="shape=ext;double=1;rounded=0;whiteSpace=wrap;html=1;fontSize=20;fontColor=#FF66FF;labelPosition=center;verticalLabelPosition=middle;align=center;verticalAlign=middle;" vertex="1" parent="l-t9LCDbLbuqFQUgRugY-3">
                    <mxGeometry x="100" y="310" width="200" height="40" as="geometry"/>
                </mxCell>
                <mxCell id="l-t9LCDbLbuqFQUgRugY-114" value="số lượng nhân viên" style="rounded=0;whiteSpace=wrap;html=1;fontSize=20;fontColor=#FF66FF;" vertex="1" parent="l-t9LCDbLbuqFQUgRugY-3">
                    <mxGeometry x="100" y="350" width="200" height="60" as="geometry"/>
                </mxCell>
                <mxCell id="l-t9LCDbLbuqFQUgRugY-115" value="Tên Phòng Ban" style="shape=ext;double=1;rounded=0;whiteSpace=wrap;html=1;fontSize=20;fontColor=#FF66FF;labelPosition=center;verticalLabelPosition=middle;align=center;verticalAlign=middle;" vertex="1" parent="l-t9LCDbLbuqFQUgRugY-3">
                    <mxGeometry x="340" y="310" width="190" height="40" as="geometry"/>
                </mxCell>
                <mxCell id="l-t9LCDbLbuqFQUgRugY-116" value="số lượng nhân viên" style="rounded=0;whiteSpace=wrap;html=1;fontSize=20;fontColor=#FF66FF;" vertex="1" parent="l-t9LCDbLbuqFQUgRugY-3">
                    <mxGeometry x="340" y="350" width="190" height="60" as="geometry"/>
                </mxCell>
                <mxCell id="l-t9LCDbLbuqFQUgRugY-117" value="Tên Phòng Ban" style="shape=ext;double=1;rounded=0;whiteSpace=wrap;html=1;fontSize=20;fontColor=#FF66FF;labelPosition=center;verticalLabelPosition=middle;align=center;verticalAlign=middle;" vertex="1" parent="l-t9LCDbLbuqFQUgRugY-3">
                    <mxGeometry x="570" y="310" width="180" height="40" as="geometry"/>
                </mxCell>
                <mxCell id="l-t9LCDbLbuqFQUgRugY-118" value="số lượng nhân viên" style="rounded=0;whiteSpace=wrap;html=1;fontSize=20;fontColor=#FF66FF;" vertex="1" parent="l-t9LCDbLbuqFQUgRugY-3">
                    <mxGeometry x="570" y="350" width="180" height="60" as="geometry"/>
                </mxCell>
            </root>
        </mxGraphModel>
    </diagram>
    <diagram id="AyWRFbMxIVs07Lmcv03o" name="Page-3">
        <mxGraphModel dx="1086" dy="534" grid="1" gridSize="10" guides="1" tooltips="1" connect="1" arrows="1" fold="1" page="1" pageScale="1" pageWidth="850" pageHeight="1100" math="0" shadow="0">
            <root>
                <mxCell id="QMkFCNdJewGg1XtFTj8U-0"/>
                <mxCell id="QMkFCNdJewGg1XtFTj8U-1" parent="QMkFCNdJewGg1XtFTj8U-0"/>
                <mxCell id="f-xEd2q4UeP9PBtKg3XJ-0" value="" style="strokeWidth=1;shadow=0;dashed=0;align=center;html=1;shape=mxgraph.mockup.buttons.multiButton;fillColor=#008cff;strokeColor=#666666;mainText=;subText=;fontStyle=1" vertex="1" parent="QMkFCNdJewGg1XtFTj8U-1">
                    <mxGeometry x="350" width="150" height="50" as="geometry"/>
                </mxCell>
                <mxCell id="f-xEd2q4UeP9PBtKg3XJ-1" value="SALARY PAGE" style="strokeWidth=1;shadow=0;dashed=0;align=center;html=1;shape=mxgraph.mockup.anchor;fontSize=16;fontColor=#ffffff;fontStyle=1;whiteSpace=wrap;" vertex="1" parent="f-xEd2q4UeP9PBtKg3XJ-0">
                    <mxGeometry y="8" width="150" height="20" as="geometry"/>
                </mxCell>
                <mxCell id="f-xEd2q4UeP9PBtKg3XJ-2" value="" style="strokeWidth=1;shadow=0;dashed=0;align=center;html=1;shape=mxgraph.mockup.anchor;fontSize=12;fontColor=#ffffff;fontStyle=0;whiteSpace=wrap;" vertex="1" parent="f-xEd2q4UeP9PBtKg3XJ-0">
                    <mxGeometry y="30" width="150" height="10" as="geometry"/>
                </mxCell>
                <mxCell id="f-xEd2q4UeP9PBtKg3XJ-3" value="" style="strokeWidth=1;shadow=0;dashed=0;align=center;html=1;shape=mxgraph.mockup.containers.browserWindow;rSize=0;strokeColor=#666666;strokeColor2=#008cff;strokeColor3=#c4c4c4;mainText=,;recursiveResize=0;" vertex="1" parent="QMkFCNdJewGg1XtFTj8U-1">
                    <mxGeometry y="60" width="850" height="1040" as="geometry"/>
                </mxCell>
                <mxCell id="f-xEd2q4UeP9PBtKg3XJ-4" value="Page 3" style="strokeWidth=1;shadow=0;dashed=0;align=center;html=1;shape=mxgraph.mockup.containers.anchor;fontSize=17;fontColor=#666666;align=left;" vertex="1" parent="f-xEd2q4UeP9PBtKg3XJ-3">
                    <mxGeometry x="60" y="12" width="110" height="26" as="geometry"/>
                </mxCell>
                <mxCell id="f-xEd2q4UeP9PBtKg3XJ-5" value="https://www.draw.io" style="strokeWidth=1;shadow=0;dashed=0;align=center;html=1;shape=mxgraph.mockup.containers.anchor;rSize=0;fontSize=17;fontColor=#666666;align=left;" vertex="1" parent="f-xEd2q4UeP9PBtKg3XJ-3">
                    <mxGeometry x="130" y="60" width="250" height="26" as="geometry"/>
                </mxCell>
                <mxCell id="f-xEd2q4UeP9PBtKg3XJ-6" value="" style="rounded=0;whiteSpace=wrap;html=1;" vertex="1" parent="f-xEd2q4UeP9PBtKg3XJ-3">
                    <mxGeometry y="110" width="850" height="60" as="geometry"/>
                </mxCell>
                <mxCell id="f-xEd2q4UeP9PBtKg3XJ-7" value="&lt;b&gt;&lt;font color=&quot;#ff66ff&quot;&gt;&lt;a href=&quot;data:page/id,CxsQ25hK5FFDRgqwHUKH&quot;&gt;LOGO&lt;/a&gt;&lt;/font&gt;&lt;/b&gt;" style="whiteSpace=wrap;html=1;aspect=fixed;" vertex="1" parent="f-xEd2q4UeP9PBtKg3XJ-3">
                    <mxGeometry x="100" y="110" width="60" height="60" as="geometry"/>
                </mxCell>
                <mxCell id="f-xEd2q4UeP9PBtKg3XJ-8" value="" style="endArrow=none;html=1;entryX=1;entryY=0;entryDx=0;entryDy=0;exitX=0;exitY=1;exitDx=0;exitDy=0;" edge="1" parent="f-xEd2q4UeP9PBtKg3XJ-3" source="f-xEd2q4UeP9PBtKg3XJ-7" target="f-xEd2q4UeP9PBtKg3XJ-7">
                    <mxGeometry width="50" height="50" relative="1" as="geometry">
                        <mxPoint x="380" y="210" as="sourcePoint"/>
                        <mxPoint x="430" y="160" as="targetPoint"/>
                        <Array as="points"/>
                    </mxGeometry>
                </mxCell>
                <mxCell id="f-xEd2q4UeP9PBtKg3XJ-9" value="" style="endArrow=none;html=1;entryX=0;entryY=0;entryDx=0;entryDy=0;exitX=1;exitY=1;exitDx=0;exitDy=0;" edge="1" parent="f-xEd2q4UeP9PBtKg3XJ-3" source="f-xEd2q4UeP9PBtKg3XJ-7" target="f-xEd2q4UeP9PBtKg3XJ-7">
                    <mxGeometry width="50" height="50" relative="1" as="geometry">
                        <mxPoint x="380" y="210" as="sourcePoint"/>
                        <mxPoint x="430" y="160" as="targetPoint"/>
                    </mxGeometry>
                </mxCell>
                <mxCell id="f-xEd2q4UeP9PBtKg3XJ-10" value="&lt;b&gt;&lt;font color=&quot;#ff66ff&quot;&gt;&lt;a href=&quot;data:page/id,CxsQ25hK5FFDRgqwHUKH&quot;&gt;logo&lt;/a&gt;&lt;/font&gt;&lt;/b&gt;" style="whiteSpace=wrap;html=1;aspect=fixed;" vertex="1" parent="f-xEd2q4UeP9PBtKg3XJ-3">
                    <mxGeometry x="170" y="120" width="40" height="40" as="geometry"/>
                </mxCell>
                <mxCell id="f-xEd2q4UeP9PBtKg3XJ-11" value="&lt;font style=&quot;font-size: 20px&quot;&gt;&lt;a href=&quot;data:page/id,CxsQ25hK5FFDRgqwHUKH&quot;&gt;Nhân Viên&lt;/a&gt;&lt;/font&gt;" style="rounded=0;whiteSpace=wrap;html=1;" vertex="1" parent="f-xEd2q4UeP9PBtKg3XJ-3">
                    <mxGeometry x="210" y="120" width="110" height="40" as="geometry"/>
                </mxCell>
                <mxCell id="f-xEd2q4UeP9PBtKg3XJ-12" value="" style="endArrow=none;html=1;exitX=0;exitY=1;exitDx=0;exitDy=0;entryX=0;entryY=0;entryDx=0;entryDy=0;" edge="1" parent="f-xEd2q4UeP9PBtKg3XJ-3" source="f-xEd2q4UeP9PBtKg3XJ-10" target="f-xEd2q4UeP9PBtKg3XJ-11">
                    <mxGeometry width="50" height="50" relative="1" as="geometry">
                        <mxPoint x="280" y="130" as="sourcePoint"/>
                        <mxPoint x="330" y="80" as="targetPoint"/>
                    </mxGeometry>
                </mxCell>
                <mxCell id="f-xEd2q4UeP9PBtKg3XJ-13" value="" style="endArrow=none;html=1;exitX=0;exitY=0;exitDx=0;exitDy=0;entryX=0;entryY=1;entryDx=0;entryDy=0;" edge="1" parent="f-xEd2q4UeP9PBtKg3XJ-3" source="f-xEd2q4UeP9PBtKg3XJ-10" target="f-xEd2q4UeP9PBtKg3XJ-11">
                    <mxGeometry width="50" height="50" relative="1" as="geometry">
                        <mxPoint x="280" y="130" as="sourcePoint"/>
                        <mxPoint x="330" y="80" as="targetPoint"/>
                    </mxGeometry>
                </mxCell>
                <mxCell id="f-xEd2q4UeP9PBtKg3XJ-14" value="&lt;b&gt;&lt;font color=&quot;#ff66ff&quot;&gt;&lt;a href=&quot;data:page/id,U2eBz-lND8NUGA0mo6qr&quot;&gt;logo&lt;/a&gt;&lt;/font&gt;&lt;/b&gt;" style="whiteSpace=wrap;html=1;aspect=fixed;" vertex="1" parent="f-xEd2q4UeP9PBtKg3XJ-3">
                    <mxGeometry x="320" y="120" width="40" height="40" as="geometry"/>
                </mxCell>
                <mxCell id="f-xEd2q4UeP9PBtKg3XJ-15" value="&lt;font style=&quot;font-size: 20px&quot;&gt;&lt;a href=&quot;data:page/id,U2eBz-lND8NUGA0mo6qr&quot;&gt;Phòng Ban&lt;/a&gt;&lt;/font&gt;" style="rounded=0;whiteSpace=wrap;html=1;" vertex="1" parent="f-xEd2q4UeP9PBtKg3XJ-3">
                    <mxGeometry x="360" y="120" width="110" height="40" as="geometry"/>
                </mxCell>
                <mxCell id="f-xEd2q4UeP9PBtKg3XJ-16" value="" style="endArrow=none;html=1;exitX=0;exitY=1;exitDx=0;exitDy=0;entryX=0;entryY=0;entryDx=0;entryDy=0;" edge="1" parent="f-xEd2q4UeP9PBtKg3XJ-3" source="f-xEd2q4UeP9PBtKg3XJ-14" target="f-xEd2q4UeP9PBtKg3XJ-15">
                    <mxGeometry width="50" height="50" relative="1" as="geometry">
                        <mxPoint x="360" y="50" as="sourcePoint"/>
                        <mxPoint x="410" as="targetPoint"/>
                    </mxGeometry>
                </mxCell>
                <mxCell id="f-xEd2q4UeP9PBtKg3XJ-17" value="" style="endArrow=none;html=1;exitX=0;exitY=0;exitDx=0;exitDy=0;entryX=0;entryY=1;entryDx=0;entryDy=0;" edge="1" parent="f-xEd2q4UeP9PBtKg3XJ-3" source="f-xEd2q4UeP9PBtKg3XJ-14" target="f-xEd2q4UeP9PBtKg3XJ-15">
                    <mxGeometry width="50" height="50" relative="1" as="geometry">
                        <mxPoint x="360" y="50" as="sourcePoint"/>
                        <mxPoint x="410" as="targetPoint"/>
                        <Array as="points"/>
                    </mxGeometry>
                </mxCell>
                <mxCell id="f-xEd2q4UeP9PBtKg3XJ-18" value="&lt;b&gt;&lt;font color=&quot;#ff66ff&quot;&gt;&lt;a href=&quot;data:page/id,AyWRFbMxIVs07Lmcv03o&quot;&gt;logo&lt;/a&gt;&lt;/font&gt;&lt;/b&gt;" style="whiteSpace=wrap;html=1;aspect=fixed;" vertex="1" parent="f-xEd2q4UeP9PBtKg3XJ-3">
                    <mxGeometry x="470" y="120" width="40" height="40" as="geometry"/>
                </mxCell>
                <mxCell id="f-xEd2q4UeP9PBtKg3XJ-19" value="&lt;a href=&quot;data:page/id,AyWRFbMxIVs07Lmcv03o&quot;&gt;Bảng Lương&lt;/a&gt;" style="rounded=0;whiteSpace=wrap;html=1;fontSize=20;" vertex="1" parent="f-xEd2q4UeP9PBtKg3XJ-3">
                    <mxGeometry x="510" y="120" width="120" height="40" as="geometry"/>
                </mxCell>
                <mxCell id="f-xEd2q4UeP9PBtKg3XJ-20" value="" style="endArrow=none;html=1;exitX=0;exitY=1;exitDx=0;exitDy=0;entryX=0;entryY=0;entryDx=0;entryDy=0;" edge="1" parent="f-xEd2q4UeP9PBtKg3XJ-3" source="f-xEd2q4UeP9PBtKg3XJ-18" target="f-xEd2q4UeP9PBtKg3XJ-19">
                    <mxGeometry width="50" height="50" relative="1" as="geometry">
                        <mxPoint x="470" y="50" as="sourcePoint"/>
                        <mxPoint x="520" as="targetPoint"/>
                    </mxGeometry>
                </mxCell>
                <mxCell id="f-xEd2q4UeP9PBtKg3XJ-21" value="" style="endArrow=none;html=1;exitX=0;exitY=0;exitDx=0;exitDy=0;entryX=0;entryY=1;entryDx=0;entryDy=0;" edge="1" parent="f-xEd2q4UeP9PBtKg3XJ-3" source="f-xEd2q4UeP9PBtKg3XJ-18" target="f-xEd2q4UeP9PBtKg3XJ-19">
                    <mxGeometry width="50" height="50" relative="1" as="geometry">
                        <mxPoint x="470" y="50" as="sourcePoint"/>
                        <mxPoint x="520" as="targetPoint"/>
                    </mxGeometry>
                </mxCell>
                <mxCell id="f-xEd2q4UeP9PBtKg3XJ-60" value="FOOTER" style="rounded=0;whiteSpace=wrap;html=1;fontSize=20;fontColor=#FF66FF;" vertex="1" parent="f-xEd2q4UeP9PBtKg3XJ-3">
                    <mxGeometry y="850" width="850" height="190" as="geometry"/>
                </mxCell>
                <mxCell id="ITVjitl6Ak3aFRw6XtjJ-2" value="Tên NV" style="rounded=0;whiteSpace=wrap;html=1;fontSize=20;fontColor=#FF66FF;" vertex="1" parent="f-xEd2q4UeP9PBtKg3XJ-3">
                    <mxGeometry x="100" y="250" width="170" height="40" as="geometry"/>
                </mxCell>
                <mxCell id="ITVjitl6Ak3aFRw6XtjJ-3" value="Thông tin về lương" style="rounded=0;whiteSpace=wrap;html=1;fontSize=20;fontColor=#FF66FF;" vertex="1" parent="f-xEd2q4UeP9PBtKg3XJ-3">
                    <mxGeometry x="100" y="290" width="170" height="130" as="geometry"/>
                </mxCell>
                <mxCell id="ITVjitl6Ak3aFRw6XtjJ-4" value="Tên NV" style="rounded=0;whiteSpace=wrap;html=1;fontSize=20;fontColor=#FF66FF;" vertex="1" parent="f-xEd2q4UeP9PBtKg3XJ-3">
                    <mxGeometry x="340" y="250" width="170" height="40" as="geometry"/>
                </mxCell>
                <mxCell id="ITVjitl6Ak3aFRw6XtjJ-5" value="Thông tin về lương" style="rounded=0;whiteSpace=wrap;html=1;fontSize=20;fontColor=#FF66FF;" vertex="1" parent="f-xEd2q4UeP9PBtKg3XJ-3">
                    <mxGeometry x="340" y="290" width="170" height="130" as="geometry"/>
                </mxCell>
                <mxCell id="ITVjitl6Ak3aFRw6XtjJ-6" value="Tên NV" style="rounded=0;whiteSpace=wrap;html=1;fontSize=20;fontColor=#FF66FF;" vertex="1" parent="f-xEd2q4UeP9PBtKg3XJ-3">
                    <mxGeometry x="570" y="250" width="170" height="40" as="geometry"/>
                </mxCell>
                <mxCell id="ITVjitl6Ak3aFRw6XtjJ-7" value="Thông tin về lương" style="rounded=0;whiteSpace=wrap;html=1;fontSize=20;fontColor=#FF66FF;" vertex="1" parent="f-xEd2q4UeP9PBtKg3XJ-3">
                    <mxGeometry x="570" y="290" width="170" height="130" as="geometry"/>
                </mxCell>
                <mxCell id="ITVjitl6Ak3aFRw6XtjJ-8" value="Tên NV" style="rounded=0;whiteSpace=wrap;html=1;fontSize=20;fontColor=#FF66FF;" vertex="1" parent="f-xEd2q4UeP9PBtKg3XJ-3">
                    <mxGeometry x="100" y="450" width="170" height="40" as="geometry"/>
                </mxCell>
                <mxCell id="ITVjitl6Ak3aFRw6XtjJ-9" value="Thông tin về lương" style="rounded=0;whiteSpace=wrap;html=1;fontSize=20;fontColor=#FF66FF;" vertex="1" parent="f-xEd2q4UeP9PBtKg3XJ-3">
                    <mxGeometry x="100" y="490" width="170" height="130" as="geometry"/>
                </mxCell>
                <mxCell id="ITVjitl6Ak3aFRw6XtjJ-10" value="Tên NV" style="rounded=0;whiteSpace=wrap;html=1;fontSize=20;fontColor=#FF66FF;" vertex="1" parent="f-xEd2q4UeP9PBtKg3XJ-3">
                    <mxGeometry x="340" y="450" width="170" height="40" as="geometry"/>
                </mxCell>
                <mxCell id="ITVjitl6Ak3aFRw6XtjJ-11" value="Thông tin về lương" style="rounded=0;whiteSpace=wrap;html=1;fontSize=20;fontColor=#FF66FF;" vertex="1" parent="f-xEd2q4UeP9PBtKg3XJ-3">
                    <mxGeometry x="340" y="490" width="170" height="130" as="geometry"/>
                </mxCell>
                <mxCell id="ITVjitl6Ak3aFRw6XtjJ-12" value="Tên NV" style="rounded=0;whiteSpace=wrap;html=1;fontSize=20;fontColor=#FF66FF;" vertex="1" parent="f-xEd2q4UeP9PBtKg3XJ-3">
                    <mxGeometry x="570" y="450" width="170" height="40" as="geometry"/>
                </mxCell>
                <mxCell id="ITVjitl6Ak3aFRw6XtjJ-13" value="Thông tin về lương" style="rounded=0;whiteSpace=wrap;html=1;fontSize=20;fontColor=#FF66FF;" vertex="1" parent="f-xEd2q4UeP9PBtKg3XJ-3">
                    <mxGeometry x="570" y="490" width="170" height="130" as="geometry"/>
                </mxCell>
                <mxCell id="ITVjitl6Ak3aFRw6XtjJ-14" value="Tên NV" style="rounded=0;whiteSpace=wrap;html=1;fontSize=20;fontColor=#FF66FF;" vertex="1" parent="f-xEd2q4UeP9PBtKg3XJ-3">
                    <mxGeometry x="100" y="650" width="170" height="40" as="geometry"/>
                </mxCell>
                <mxCell id="ITVjitl6Ak3aFRw6XtjJ-15" value="Thông tin về lương" style="rounded=0;whiteSpace=wrap;html=1;fontSize=20;fontColor=#FF66FF;" vertex="1" parent="f-xEd2q4UeP9PBtKg3XJ-3">
                    <mxGeometry x="100" y="690" width="170" height="130" as="geometry"/>
                </mxCell>
                <mxCell id="ITVjitl6Ak3aFRw6XtjJ-16" value="Tên NV" style="rounded=0;whiteSpace=wrap;html=1;fontSize=20;fontColor=#FF66FF;" vertex="1" parent="f-xEd2q4UeP9PBtKg3XJ-3">
                    <mxGeometry x="340" y="650" width="170" height="40" as="geometry"/>
                </mxCell>
                <mxCell id="ITVjitl6Ak3aFRw6XtjJ-17" value="Thông tin về lương" style="rounded=0;whiteSpace=wrap;html=1;fontSize=20;fontColor=#FF66FF;" vertex="1" parent="f-xEd2q4UeP9PBtKg3XJ-3">
                    <mxGeometry x="340" y="690" width="170" height="130" as="geometry"/>
                </mxCell>
                <mxCell id="ITVjitl6Ak3aFRw6XtjJ-18" value="Tên NV" style="rounded=0;whiteSpace=wrap;html=1;fontSize=20;fontColor=#FF66FF;" vertex="1" parent="f-xEd2q4UeP9PBtKg3XJ-3">
                    <mxGeometry x="570" y="650" width="170" height="40" as="geometry"/>
                </mxCell>
                <mxCell id="ITVjitl6Ak3aFRw6XtjJ-19" value="Thông tin về lương" style="rounded=0;whiteSpace=wrap;html=1;fontSize=20;fontColor=#FF66FF;" vertex="1" parent="f-xEd2q4UeP9PBtKg3XJ-3">
                    <mxGeometry x="570" y="690" width="170" height="130" as="geometry"/>
                </mxCell>
                <mxCell id="ITVjitl6Ak3aFRw6XtjJ-20" value="Nút sắp xếp hệ số lương" style="rounded=0;whiteSpace=wrap;html=1;fontSize=20;fontColor=#FF66FF;" vertex="1" parent="f-xEd2q4UeP9PBtKg3XJ-3">
                    <mxGeometry x="300" y="190" width="250" height="40" as="geometry"/>
                </mxCell>
            </root>
        </mxGraphModel>
    </diagram>
    <diagram id="LYUTWzcUxuBQ3LVQwCaI" name="Page-4">
        <mxGraphModel dx="1382" dy="680" grid="1" gridSize="10" guides="1" tooltips="1" connect="1" arrows="1" fold="1" page="1" pageScale="1" pageWidth="850" pageHeight="1100" math="0" shadow="0">
            <root>
                <mxCell id="pHV5VgEjd8aK_6FlH0Ji-0"/>
                <mxCell id="pHV5VgEjd8aK_6FlH0Ji-1" parent="pHV5VgEjd8aK_6FlH0Ji-0"/>
                <mxCell id="NbWP1S--BuYzcNCdPQo3-0" value="" style="strokeWidth=1;shadow=0;dashed=0;align=center;html=1;shape=mxgraph.mockup.buttons.multiButton;fillColor=#008cff;strokeColor=#666666;mainText=;subText=;fontStyle=1" vertex="1" parent="pHV5VgEjd8aK_6FlH0Ji-1">
                    <mxGeometry x="330" width="190" height="50" as="geometry"/>
                </mxCell>
                <mxCell id="NbWP1S--BuYzcNCdPQo3-1" value="STAFF PAGE" style="strokeWidth=1;shadow=0;dashed=0;align=center;html=1;shape=mxgraph.mockup.anchor;fontSize=16;fontColor=#ffffff;fontStyle=1;whiteSpace=wrap;" vertex="1" parent="NbWP1S--BuYzcNCdPQo3-0">
                    <mxGeometry y="8" width="190" height="20" as="geometry"/>
                </mxCell>
                <mxCell id="NbWP1S--BuYzcNCdPQo3-2" value="" style="strokeWidth=1;shadow=0;dashed=0;align=center;html=1;shape=mxgraph.mockup.anchor;fontSize=12;fontColor=#ffffff;fontStyle=0;whiteSpace=wrap;" vertex="1" parent="NbWP1S--BuYzcNCdPQo3-0">
                    <mxGeometry y="30" width="158.33333333333334" height="10" as="geometry"/>
                </mxCell>
                <mxCell id="oSlbJ2wEOasZCYzW3b8w-0" value="" style="strokeWidth=1;shadow=0;dashed=0;align=center;html=1;shape=mxgraph.mockup.containers.browserWindow;rSize=0;strokeColor=#666666;strokeColor2=#008cff;strokeColor3=#c4c4c4;mainText=,;recursiveResize=0;" vertex="1" parent="pHV5VgEjd8aK_6FlH0Ji-1">
                    <mxGeometry y="60" width="850" height="780" as="geometry"/>
                </mxCell>
                <mxCell id="oSlbJ2wEOasZCYzW3b8w-1" value="Page 4" style="strokeWidth=1;shadow=0;dashed=0;align=center;html=1;shape=mxgraph.mockup.containers.anchor;fontSize=17;fontColor=#666666;align=left;" vertex="1" parent="oSlbJ2wEOasZCYzW3b8w-0">
                    <mxGeometry x="60" y="12" width="110" height="26" as="geometry"/>
                </mxCell>
                <mxCell id="oSlbJ2wEOasZCYzW3b8w-2" value="https://www.draw.io" style="strokeWidth=1;shadow=0;dashed=0;align=center;html=1;shape=mxgraph.mockup.containers.anchor;rSize=0;fontSize=17;fontColor=#666666;align=left;" vertex="1" parent="oSlbJ2wEOasZCYzW3b8w-0">
                    <mxGeometry x="130" y="60" width="250" height="26" as="geometry"/>
                </mxCell>
                <mxCell id="oSlbJ2wEOasZCYzW3b8w-3" value="" style="rounded=0;whiteSpace=wrap;html=1;" vertex="1" parent="oSlbJ2wEOasZCYzW3b8w-0">
                    <mxGeometry y="110" width="850" height="60" as="geometry"/>
                </mxCell>
                <mxCell id="oSlbJ2wEOasZCYzW3b8w-4" value="&lt;b&gt;&lt;font color=&quot;#ff66ff&quot;&gt;&lt;a href=&quot;data:page/id,CxsQ25hK5FFDRgqwHUKH&quot;&gt;LOGO&lt;/a&gt;&lt;/font&gt;&lt;/b&gt;" style="whiteSpace=wrap;html=1;aspect=fixed;" vertex="1" parent="oSlbJ2wEOasZCYzW3b8w-0">
                    <mxGeometry x="100" y="110" width="60" height="60" as="geometry"/>
                </mxCell>
                <mxCell id="oSlbJ2wEOasZCYzW3b8w-5" value="" style="endArrow=none;html=1;entryX=1;entryY=0;entryDx=0;entryDy=0;exitX=0;exitY=1;exitDx=0;exitDy=0;" edge="1" parent="oSlbJ2wEOasZCYzW3b8w-0" source="oSlbJ2wEOasZCYzW3b8w-4" target="oSlbJ2wEOasZCYzW3b8w-4">
                    <mxGeometry width="50" height="50" relative="1" as="geometry">
                        <mxPoint x="380" y="210" as="sourcePoint"/>
                        <mxPoint x="430" y="160" as="targetPoint"/>
                        <Array as="points"/>
                    </mxGeometry>
                </mxCell>
                <mxCell id="oSlbJ2wEOasZCYzW3b8w-6" value="" style="endArrow=none;html=1;entryX=0;entryY=0;entryDx=0;entryDy=0;exitX=1;exitY=1;exitDx=0;exitDy=0;" edge="1" parent="oSlbJ2wEOasZCYzW3b8w-0" source="oSlbJ2wEOasZCYzW3b8w-4" target="oSlbJ2wEOasZCYzW3b8w-4">
                    <mxGeometry width="50" height="50" relative="1" as="geometry">
                        <mxPoint x="380" y="210" as="sourcePoint"/>
                        <mxPoint x="430" y="160" as="targetPoint"/>
                    </mxGeometry>
                </mxCell>
                <mxCell id="oSlbJ2wEOasZCYzW3b8w-7" value="&lt;b&gt;&lt;font color=&quot;#ff66ff&quot;&gt;&lt;a href=&quot;data:page/id,CxsQ25hK5FFDRgqwHUKH&quot;&gt;logo&lt;/a&gt;&lt;/font&gt;&lt;/b&gt;" style="whiteSpace=wrap;html=1;aspect=fixed;" vertex="1" parent="oSlbJ2wEOasZCYzW3b8w-0">
                    <mxGeometry x="170" y="120" width="40" height="40" as="geometry"/>
                </mxCell>
                <mxCell id="oSlbJ2wEOasZCYzW3b8w-8" value="&lt;font style=&quot;font-size: 20px&quot;&gt;&lt;a href=&quot;data:page/id,CxsQ25hK5FFDRgqwHUKH&quot;&gt;Nhân Viên&lt;/a&gt;&lt;/font&gt;" style="rounded=0;whiteSpace=wrap;html=1;" vertex="1" parent="oSlbJ2wEOasZCYzW3b8w-0">
                    <mxGeometry x="210" y="120" width="110" height="40" as="geometry"/>
                </mxCell>
                <mxCell id="oSlbJ2wEOasZCYzW3b8w-9" value="" style="endArrow=none;html=1;exitX=0;exitY=1;exitDx=0;exitDy=0;entryX=0;entryY=0;entryDx=0;entryDy=0;" edge="1" parent="oSlbJ2wEOasZCYzW3b8w-0" source="oSlbJ2wEOasZCYzW3b8w-7" target="oSlbJ2wEOasZCYzW3b8w-8">
                    <mxGeometry width="50" height="50" relative="1" as="geometry">
                        <mxPoint x="280" y="130" as="sourcePoint"/>
                        <mxPoint x="330" y="80" as="targetPoint"/>
                    </mxGeometry>
                </mxCell>
                <mxCell id="oSlbJ2wEOasZCYzW3b8w-10" value="" style="endArrow=none;html=1;exitX=0;exitY=0;exitDx=0;exitDy=0;entryX=0;entryY=1;entryDx=0;entryDy=0;" edge="1" parent="oSlbJ2wEOasZCYzW3b8w-0" source="oSlbJ2wEOasZCYzW3b8w-7" target="oSlbJ2wEOasZCYzW3b8w-8">
                    <mxGeometry width="50" height="50" relative="1" as="geometry">
                        <mxPoint x="280" y="130" as="sourcePoint"/>
                        <mxPoint x="330" y="80" as="targetPoint"/>
                    </mxGeometry>
                </mxCell>
                <mxCell id="oSlbJ2wEOasZCYzW3b8w-11" value="&lt;b&gt;&lt;font color=&quot;#ff66ff&quot;&gt;&lt;a href=&quot;data:page/id,U2eBz-lND8NUGA0mo6qr&quot;&gt;logo&lt;/a&gt;&lt;/font&gt;&lt;/b&gt;" style="whiteSpace=wrap;html=1;aspect=fixed;" vertex="1" parent="oSlbJ2wEOasZCYzW3b8w-0">
                    <mxGeometry x="320" y="120" width="40" height="40" as="geometry"/>
                </mxCell>
                <mxCell id="oSlbJ2wEOasZCYzW3b8w-12" value="&lt;font style=&quot;font-size: 20px&quot;&gt;&lt;a href=&quot;data:page/id,U2eBz-lND8NUGA0mo6qr&quot;&gt;Phòng Ban&lt;/a&gt;&lt;/font&gt;" style="rounded=0;whiteSpace=wrap;html=1;" vertex="1" parent="oSlbJ2wEOasZCYzW3b8w-0">
                    <mxGeometry x="360" y="120" width="110" height="40" as="geometry"/>
                </mxCell>
                <mxCell id="oSlbJ2wEOasZCYzW3b8w-13" value="" style="endArrow=none;html=1;exitX=0;exitY=1;exitDx=0;exitDy=0;entryX=0;entryY=0;entryDx=0;entryDy=0;" edge="1" parent="oSlbJ2wEOasZCYzW3b8w-0" source="oSlbJ2wEOasZCYzW3b8w-11" target="oSlbJ2wEOasZCYzW3b8w-12">
                    <mxGeometry width="50" height="50" relative="1" as="geometry">
                        <mxPoint x="360" y="50" as="sourcePoint"/>
                        <mxPoint x="410" as="targetPoint"/>
                    </mxGeometry>
                </mxCell>
                <mxCell id="oSlbJ2wEOasZCYzW3b8w-14" value="" style="endArrow=none;html=1;exitX=0;exitY=0;exitDx=0;exitDy=0;entryX=0;entryY=1;entryDx=0;entryDy=0;" edge="1" parent="oSlbJ2wEOasZCYzW3b8w-0" source="oSlbJ2wEOasZCYzW3b8w-11" target="oSlbJ2wEOasZCYzW3b8w-12">
                    <mxGeometry width="50" height="50" relative="1" as="geometry">
                        <mxPoint x="360" y="50" as="sourcePoint"/>
                        <mxPoint x="410" as="targetPoint"/>
                        <Array as="points"/>
                    </mxGeometry>
                </mxCell>
                <mxCell id="oSlbJ2wEOasZCYzW3b8w-15" value="&lt;b&gt;&lt;font color=&quot;#ff66ff&quot;&gt;&lt;a href=&quot;data:page/id,AyWRFbMxIVs07Lmcv03o&quot;&gt;logo&lt;/a&gt;&lt;/font&gt;&lt;/b&gt;" style="whiteSpace=wrap;html=1;aspect=fixed;" vertex="1" parent="oSlbJ2wEOasZCYzW3b8w-0">
                    <mxGeometry x="470" y="120" width="40" height="40" as="geometry"/>
                </mxCell>
                <mxCell id="oSlbJ2wEOasZCYzW3b8w-16" value="&lt;a href=&quot;data:page/id,AyWRFbMxIVs07Lmcv03o&quot;&gt;Bảng Lương&lt;/a&gt;" style="rounded=0;whiteSpace=wrap;html=1;fontSize=20;" vertex="1" parent="oSlbJ2wEOasZCYzW3b8w-0">
                    <mxGeometry x="510" y="120" width="120" height="40" as="geometry"/>
                </mxCell>
                <mxCell id="oSlbJ2wEOasZCYzW3b8w-17" value="" style="endArrow=none;html=1;exitX=0;exitY=1;exitDx=0;exitDy=0;entryX=0;entryY=0;entryDx=0;entryDy=0;" edge="1" parent="oSlbJ2wEOasZCYzW3b8w-0" source="oSlbJ2wEOasZCYzW3b8w-15" target="oSlbJ2wEOasZCYzW3b8w-16">
                    <mxGeometry width="50" height="50" relative="1" as="geometry">
                        <mxPoint x="470" y="50" as="sourcePoint"/>
                        <mxPoint x="520" as="targetPoint"/>
                    </mxGeometry>
                </mxCell>
                <mxCell id="oSlbJ2wEOasZCYzW3b8w-18" value="" style="endArrow=none;html=1;exitX=0;exitY=0;exitDx=0;exitDy=0;entryX=0;entryY=1;entryDx=0;entryDy=0;" edge="1" parent="oSlbJ2wEOasZCYzW3b8w-0" source="oSlbJ2wEOasZCYzW3b8w-15" target="oSlbJ2wEOasZCYzW3b8w-16">
                    <mxGeometry width="50" height="50" relative="1" as="geometry">
                        <mxPoint x="470" y="50" as="sourcePoint"/>
                        <mxPoint x="520" as="targetPoint"/>
                    </mxGeometry>
                </mxCell>
                <mxCell id="oSlbJ2wEOasZCYzW3b8w-19" value="FOOTER" style="rounded=0;whiteSpace=wrap;html=1;fontSize=20;fontColor=#FF66FF;" vertex="1" parent="oSlbJ2wEOasZCYzW3b8w-0">
                    <mxGeometry y="520" width="850" height="260" as="geometry"/>
                </mxCell>
                <mxCell id="oSlbJ2wEOasZCYzW3b8w-32" value="" style="verticalLabelPosition=bottom;shadow=0;dashed=0;align=center;html=1;verticalAlign=top;strokeWidth=1;shape=mxgraph.mockup.containers.userMale;strokeColor=#666666;strokeColor2=#008cff;fontSize=20;fontColor=#FF66FF;" vertex="1" parent="oSlbJ2wEOasZCYzW3b8w-0">
                    <mxGeometry x="100" y="280" width="190" height="200" as="geometry"/>
                </mxCell>
                <mxCell id="GuHv_pTD9XYYLgecQ4zy-0" value="Thông tin nhân viên" style="whiteSpace=wrap;html=1;aspect=fixed;labelBackgroundColor=none;fontSize=20;fontColor=#FF66FF;" vertex="1" parent="oSlbJ2wEOasZCYzW3b8w-0">
                    <mxGeometry x="290" y="280" width="200" height="200" as="geometry"/>
                </mxCell>
                <mxCell id="oSlbJ2wEOasZCYzW3b8w-33" value="&lt;span style=&quot;color: rgba(0 , 0 , 0 , 0) ; font-family: monospace ; font-size: 0px&quot;&gt;%3CmxGraphModel%3E%3Croot%3E%3CmxCell%20id%3D%220%22%2F%3E%3CmxCell%20id%3D%221%22%20parent%3D%220%22%2F%3E%3CmxCell%20id%3D%222%22%20value%3D%22Button%202%22%20style%3D%22strokeColor%3Dinherit%3BfillColor%3Dinherit%3BgradientColor%3Dinherit%3BstrokeWidth%3D1%3Bshadow%3D0%3Bdashed%3D0%3Balign%3Dcenter%3Bhtml%3D1%3Bshape%3Dmxgraph.mockup.rrect%3BrSize%3D0%3BfontSize%3D17%3BfontColor%3D%23666666%3BfontStyle%3D1%3BresizeHeight%3D1%3B%22%20vertex%3D%221%22%20parent%3D%221%22%3E%3CmxGeometry%20x%3D%22225%22%20y%3D%22240%22%20width%3D%22125%22%20height%3D%2250%22%20as%3D%22geometry%22%2F%3E%3C%2FmxCell%3E%3C%2Froot%3E%3C%2FmxGraphModel%3E&lt;/span&gt;" style="strokeWidth=1;shadow=0;dashed=0;align=center;html=1;shape=mxgraph.mockup.rrect;rSize=10;fillColor=#ffffff;strokeColor=#666666;fontSize=20;fontColor=#FF66FF;" vertex="1" parent="oSlbJ2wEOasZCYzW3b8w-0">
                    <mxGeometry x="100" y="200" width="250" height="50" as="geometry"/>
                </mxCell>
                <mxCell id="oSlbJ2wEOasZCYzW3b8w-34" value="Tên NV" style="strokeColor=inherit;fillColor=inherit;gradientColor=inherit;strokeWidth=1;shadow=0;dashed=0;align=center;html=1;shape=mxgraph.mockup.rrect;rSize=0;fontSize=17;fontColor=#666666;fontStyle=1;resizeHeight=1;" vertex="1" parent="oSlbJ2wEOasZCYzW3b8w-33">
                    <mxGeometry width="125" height="50" relative="1" as="geometry">
                        <mxPoint x="125" as="offset"/>
                    </mxGeometry>
                </mxCell>
                <mxCell id="oSlbJ2wEOasZCYzW3b8w-38" value="&lt;a href=&quot;data:page/id,CxsQ25hK5FFDRgqwHUKH&quot;&gt;Nhân Viên&lt;/a&gt;" style="strokeColor=inherit;fillColor=inherit;gradientColor=inherit;strokeWidth=1;shadow=0;dashed=0;align=center;html=1;shape=mxgraph.mockup.rrect;rSize=0;fontSize=17;fontColor=#666666;fontStyle=1;resizeHeight=1;" vertex="1" parent="oSlbJ2wEOasZCYzW3b8w-33">
                    <mxGeometry width="125" height="50" as="geometry"/>
                </mxCell>
            </root>
        </mxGraphModel>
    </diagram>
    <diagram id="PFoQp0Ru3GLLRQe7ooY7" name="Page-5">
        <mxGraphModel dx="760" dy="374" grid="1" gridSize="10" guides="1" tooltips="1" connect="1" arrows="1" fold="1" page="1" pageScale="1" pageWidth="850" pageHeight="1100" math="0" shadow="0">
            <root>
                <mxCell id="lMUGi4X2ibf7-4UDYSxa-0"/>
                <mxCell id="lMUGi4X2ibf7-4UDYSxa-1" parent="lMUGi4X2ibf7-4UDYSxa-0"/>
                <UserObject label="STAFFS PAGE" treeRoot="1" id="lMUGi4X2ibf7-4UDYSxa-11">
                    <mxCell style="whiteSpace=wrap;html=1;align=center;treeFolding=1;treeMoving=1;newEdgeStyle={&quot;edgeStyle&quot;:&quot;elbowEdgeStyle&quot;,&quot;startArrow&quot;:&quot;none&quot;,&quot;endArrow&quot;:&quot;none&quot;};labelBackgroundColor=none;fontSize=20;fontColor=#FF66FF;" vertex="1" parent="lMUGi4X2ibf7-4UDYSxa-1">
                        <mxGeometry x="40" y="150" width="120" height="60" as="geometry"/>
                    </mxCell>
                </UserObject>
                <UserObject label="SALARY PAGE" treeRoot="1" id="lMUGi4X2ibf7-4UDYSxa-12">
                    <mxCell style="whiteSpace=wrap;html=1;align=center;treeFolding=1;treeMoving=1;newEdgeStyle={&quot;edgeStyle&quot;:&quot;elbowEdgeStyle&quot;,&quot;startArrow&quot;:&quot;none&quot;,&quot;endArrow&quot;:&quot;none&quot;};labelBackgroundColor=none;fontSize=20;fontColor=#FF66FF;" vertex="1" parent="lMUGi4X2ibf7-4UDYSxa-1">
                        <mxGeometry x="580" y="150" width="120" height="60" as="geometry"/>
                    </mxCell>
                </UserObject>
                <UserObject label="DEPARTMENT PAGE" treeRoot="1" id="lMUGi4X2ibf7-4UDYSxa-13">
                    <mxCell style="whiteSpace=wrap;html=1;align=center;treeFolding=1;treeMoving=1;newEdgeStyle={&quot;edgeStyle&quot;:&quot;elbowEdgeStyle&quot;,&quot;startArrow&quot;:&quot;none&quot;,&quot;endArrow&quot;:&quot;none&quot;};labelBackgroundColor=none;fontSize=20;fontColor=#FF66FF;" vertex="1" parent="lMUGi4X2ibf7-4UDYSxa-1">
                        <mxGeometry x="305" y="150" width="175" height="60" as="geometry"/>
                    </mxCell>
                </UserObject>
                <mxCell id="lMUGi4X2ibf7-4UDYSxa-14" value="" style="endArrow=classic;startArrow=classic;html=1;fontSize=20;fontColor=#FF66FF;exitX=1;exitY=0.5;exitDx=0;exitDy=0;entryX=0;entryY=0.5;entryDx=0;entryDy=0;" edge="1" parent="lMUGi4X2ibf7-4UDYSxa-1" source="lMUGi4X2ibf7-4UDYSxa-11" target="lMUGi4X2ibf7-4UDYSxa-13">
                    <mxGeometry width="50" height="50" relative="1" as="geometry">
                        <mxPoint x="370" y="230" as="sourcePoint"/>
                        <mxPoint x="300" y="180" as="targetPoint"/>
                    </mxGeometry>
                </mxCell>
                <mxCell id="lMUGi4X2ibf7-4UDYSxa-15" value="" style="endArrow=classic;startArrow=classic;html=1;fontSize=20;fontColor=#FF66FF;entryX=0;entryY=0.5;entryDx=0;entryDy=0;exitX=1;exitY=0.5;exitDx=0;exitDy=0;" edge="1" parent="lMUGi4X2ibf7-4UDYSxa-1" source="lMUGi4X2ibf7-4UDYSxa-13" target="lMUGi4X2ibf7-4UDYSxa-12">
                    <mxGeometry width="50" height="50" relative="1" as="geometry">
                        <mxPoint x="320" y="250" as="sourcePoint"/>
                        <mxPoint x="370" y="200" as="targetPoint"/>
                    </mxGeometry>
                </mxCell>
                <UserObject label="STAFF PAGE" treeRoot="1" id="lMUGi4X2ibf7-4UDYSxa-16">
                    <mxCell style="whiteSpace=wrap;html=1;align=center;treeFolding=1;treeMoving=1;newEdgeStyle={&quot;edgeStyle&quot;:&quot;elbowEdgeStyle&quot;,&quot;startArrow&quot;:&quot;none&quot;,&quot;endArrow&quot;:&quot;none&quot;};labelBackgroundColor=none;fontSize=20;fontColor=#FF66FF;" vertex="1" parent="lMUGi4X2ibf7-4UDYSxa-1">
                        <mxGeometry x="40" y="270" width="120" height="60" as="geometry"/>
                    </mxCell>
                </UserObject>
                <mxCell id="lMUGi4X2ibf7-4UDYSxa-17" value="" style="endArrow=classic;startArrow=classic;html=1;fontSize=20;fontColor=#FF66FF;entryX=0.5;entryY=1;entryDx=0;entryDy=0;exitX=0.5;exitY=0;exitDx=0;exitDy=0;" edge="1" parent="lMUGi4X2ibf7-4UDYSxa-1" source="lMUGi4X2ibf7-4UDYSxa-16" target="lMUGi4X2ibf7-4UDYSxa-11">
                    <mxGeometry width="50" height="50" relative="1" as="geometry">
                        <mxPoint x="290" y="220" as="sourcePoint"/>
                        <mxPoint x="340" y="170" as="targetPoint"/>
                    </mxGeometry>
                </mxCell>
                <mxCell id="lMUGi4X2ibf7-4UDYSxa-18" value="" style="edgeStyle=segmentEdgeStyle;endArrow=classic;html=1;fontSize=20;fontColor=#FF66FF;entryX=0.5;entryY=0;entryDx=0;entryDy=0;" edge="1" parent="lMUGi4X2ibf7-4UDYSxa-1" target="lMUGi4X2ibf7-4UDYSxa-12">
                    <mxGeometry width="50" height="50" relative="1" as="geometry">
                        <mxPoint x="367.5" y="80" as="sourcePoint"/>
                        <mxPoint x="417.5" y="30" as="targetPoint"/>
                        <Array as="points">
                            <mxPoint x="640" y="80"/>
                        </Array>
                    </mxGeometry>
                </mxCell>
                <mxCell id="lMUGi4X2ibf7-4UDYSxa-19" value="" style="edgeStyle=segmentEdgeStyle;endArrow=classic;html=1;fontSize=20;fontColor=#FF66FF;entryX=0.5;entryY=0;entryDx=0;entryDy=0;" edge="1" parent="lMUGi4X2ibf7-4UDYSxa-1" target="lMUGi4X2ibf7-4UDYSxa-11">
                    <mxGeometry width="50" height="50" relative="1" as="geometry">
                        <mxPoint x="370" y="80" as="sourcePoint"/>
                        <mxPoint x="120" y="80" as="targetPoint"/>
                    </mxGeometry>
                </mxCell>
                <mxCell id="lMUGi4X2ibf7-4UDYSxa-20" value="" style="edgeStyle=segmentEdgeStyle;endArrow=classic;html=1;fontSize=20;fontColor=#FF66FF;exitX=1;exitY=0.5;exitDx=0;exitDy=0;" edge="1" parent="lMUGi4X2ibf7-4UDYSxa-1" source="lMUGi4X2ibf7-4UDYSxa-16">
                    <mxGeometry width="50" height="50" relative="1" as="geometry">
                        <mxPoint x="280" y="300" as="sourcePoint"/>
                        <mxPoint x="400" y="210" as="targetPoint"/>
                        <Array as="points">
                            <mxPoint x="400" y="300"/>
                        </Array>
                    </mxGeometry>
                </mxCell>
                <mxCell id="lMUGi4X2ibf7-4UDYSxa-21" value="" style="edgeStyle=segmentEdgeStyle;endArrow=classic;html=1;fontSize=20;fontColor=#FF66FF;" edge="1" parent="lMUGi4X2ibf7-4UDYSxa-1">
                    <mxGeometry width="50" height="50" relative="1" as="geometry">
                        <mxPoint x="380" y="300" as="sourcePoint"/>
                        <mxPoint x="640" y="210" as="targetPoint"/>
                    </mxGeometry>
                </mxCell>
            </root>
        </mxGraphModel>
    </diagram>
</mxfile>